<mxfile host="Electron" modified="2023-12-09T10:07:09.826Z" agent="Mozilla/5.0 (Macintosh; Intel Mac OS X 10_15_7) AppleWebKit/537.36 (KHTML, like Gecko) draw.io/22.1.2 Chrome/114.0.5735.289 Electron/25.9.4 Safari/537.36" etag="k3grbBOGXKd6Hp7xOzSb" version="22.1.2" type="device">
  <diagram name="Страница — 1" id="0YllM54pfcNBdjp9HYvL">
    <mxGraphModel dx="1122" dy="725" grid="1" gridSize="10" guides="1" tooltips="1" connect="1" arrows="1" fold="1" page="1" pageScale="1" pageWidth="1600" pageHeight="900" math="0" shadow="0">
      <root>
        <mxCell id="0" />
        <mxCell id="1" parent="0" />
        <mxCell id="NnWNUreuz0Js4np4w738-1" value="Пользователь" style="shape=umlActor;verticalLabelPosition=bottom;verticalAlign=top;html=1;outlineConnect=0;" parent="1" vertex="1">
          <mxGeometry x="100" y="330" width="50" height="90" as="geometry" />
        </mxCell>
        <mxCell id="NnWNUreuz0Js4np4w738-2" value="" style="rounded=0;whiteSpace=wrap;html=1;" parent="1" vertex="1">
          <mxGeometry x="210" y="50" width="740" height="650" as="geometry" />
        </mxCell>
        <mxCell id="NnWNUreuz0Js4np4w738-3" value="Разработчик сайта" style="shape=umlActor;verticalLabelPosition=bottom;verticalAlign=top;html=1;outlineConnect=0;" parent="1" vertex="1">
          <mxGeometry x="1080" y="360" width="50" height="90" as="geometry" />
        </mxCell>
        <mxCell id="NnWNUreuz0Js4np4w738-6" value="&lt;b&gt;&quot;WebApp&quot;&lt;br&gt;Приложение для расчёта и сравнения ипотечных платежей&lt;/b&gt;" style="text;html=1;strokeColor=none;fillColor=none;align=left;verticalAlign=middle;whiteSpace=wrap;rounded=0;" parent="1" vertex="1">
          <mxGeometry x="220" y="40" width="170" height="100" as="geometry" />
        </mxCell>
        <mxCell id="NnWNUreuz0Js4np4w738-7" value="Расчёт ежемесячных&amp;nbsp;платежей, полной стоимости кредита и переплаты по одному предложению" style="ellipse;whiteSpace=wrap;html=1;" parent="1" vertex="1">
          <mxGeometry x="370" y="220" width="160" height="80" as="geometry" />
        </mxCell>
        <mxCell id="jE0IaXRQl2WnNEh09qzP-1" value="Сравнение различных вариантов ипотечных кредитов" style="ellipse;whiteSpace=wrap;html=1;" parent="1" vertex="1">
          <mxGeometry x="375" y="310" width="150" height="90" as="geometry" />
        </mxCell>
        <mxCell id="jE0IaXRQl2WnNEh09qzP-2" value="&amp;nbsp;Расчёт остатка долга при досрочном погашении ипотеки" style="ellipse;whiteSpace=wrap;html=1;" parent="1" vertex="1">
          <mxGeometry x="490" y="400" width="150" height="80" as="geometry" />
        </mxCell>
        <mxCell id="jE0IaXRQl2WnNEh09qzP-3" value="Расчёт возможности увеличения ежемесячного платежа" style="ellipse;whiteSpace=wrap;html=1;" parent="1" vertex="1">
          <mxGeometry x="320" y="490" width="160" height="80" as="geometry" />
        </mxCell>
        <mxCell id="jE0IaXRQl2WnNEh09qzP-4" value="Расчёт первоначального бюджета для взятия ипотеки" style="ellipse;whiteSpace=wrap;html=1;" parent="1" vertex="1">
          <mxGeometry x="260" y="580" width="140" height="80" as="geometry" />
        </mxCell>
        <mxCell id="jE0IaXRQl2WnNEh09qzP-5" value="Расчёт первоначального взноса" style="ellipse;whiteSpace=wrap;html=1;" parent="1" vertex="1">
          <mxGeometry x="430" y="620" width="100" height="70" as="geometry" />
        </mxCell>
        <mxCell id="jE0IaXRQl2WnNEh09qzP-6" value="Расчёт страховок жизни и жилья" style="ellipse;whiteSpace=wrap;html=1;" parent="1" vertex="1">
          <mxGeometry x="490" y="550" width="100" height="70" as="geometry" />
        </mxCell>
        <mxCell id="jE0IaXRQl2WnNEh09qzP-10" value="Сравнение ипотечных предложений от разных банков" style="ellipse;whiteSpace=wrap;html=1;" parent="1" vertex="1">
          <mxGeometry x="560" y="180" width="150" height="80" as="geometry" />
        </mxCell>
        <mxCell id="jE0IaXRQl2WnNEh09qzP-11" value="" style="endArrow=block;html=1;rounded=0;entryX=1;entryY=0;entryDx=0;entryDy=0;exitX=0;exitY=1;exitDx=0;exitDy=0;endFill=0;strokeWidth=1;endSize=16;" parent="1" source="jE0IaXRQl2WnNEh09qzP-10" target="jE0IaXRQl2WnNEh09qzP-1" edge="1">
          <mxGeometry width="50" height="50" relative="1" as="geometry">
            <mxPoint x="600" y="300" as="sourcePoint" />
            <mxPoint x="650" y="250" as="targetPoint" />
          </mxGeometry>
        </mxCell>
        <mxCell id="jE0IaXRQl2WnNEh09qzP-12" value="Сравнение ипотечных предложений от одного банка" style="ellipse;whiteSpace=wrap;html=1;" parent="1" vertex="1">
          <mxGeometry x="610" y="280" width="120" height="80" as="geometry" />
        </mxCell>
        <mxCell id="jE0IaXRQl2WnNEh09qzP-13" value="" style="endArrow=block;html=1;rounded=0;entryX=1;entryY=0.5;entryDx=0;entryDy=0;exitX=0;exitY=0.5;exitDx=0;exitDy=0;endFill=0;strokeWidth=1;endSize=16;" parent="1" source="jE0IaXRQl2WnNEh09qzP-12" target="jE0IaXRQl2WnNEh09qzP-1" edge="1">
          <mxGeometry width="50" height="50" relative="1" as="geometry">
            <mxPoint x="530" y="350" as="sourcePoint" />
            <mxPoint x="580" y="300" as="targetPoint" />
          </mxGeometry>
        </mxCell>
        <mxCell id="embU2D00h88f_JBFr84A-1" value="" style="endArrow=none;html=1;rounded=0;entryX=0;entryY=1;entryDx=0;entryDy=0;exitX=1;exitY=0.3333333333333333;exitDx=0;exitDy=0;exitPerimeter=0;" parent="1" source="NnWNUreuz0Js4np4w738-1" target="NnWNUreuz0Js4np4w738-7" edge="1">
          <mxGeometry width="50" height="50" relative="1" as="geometry">
            <mxPoint x="250" y="280" as="sourcePoint" />
            <mxPoint x="300" y="230" as="targetPoint" />
          </mxGeometry>
        </mxCell>
        <mxCell id="embU2D00h88f_JBFr84A-2" value="" style="endArrow=none;html=1;rounded=0;exitX=1;exitY=0.3333333333333333;exitDx=0;exitDy=0;exitPerimeter=0;entryX=0.007;entryY=0.633;entryDx=0;entryDy=0;entryPerimeter=0;" parent="1" source="NnWNUreuz0Js4np4w738-1" target="jE0IaXRQl2WnNEh09qzP-1" edge="1">
          <mxGeometry width="50" height="50" relative="1" as="geometry">
            <mxPoint x="270" y="400" as="sourcePoint" />
            <mxPoint x="320" y="350" as="targetPoint" />
          </mxGeometry>
        </mxCell>
        <mxCell id="embU2D00h88f_JBFr84A-3" value="" style="endArrow=none;html=1;rounded=0;exitX=1;exitY=0.3333333333333333;exitDx=0;exitDy=0;exitPerimeter=0;entryX=0;entryY=0.5;entryDx=0;entryDy=0;" parent="1" source="NnWNUreuz0Js4np4w738-1" target="jE0IaXRQl2WnNEh09qzP-2" edge="1">
          <mxGeometry width="50" height="50" relative="1" as="geometry">
            <mxPoint x="320" y="420" as="sourcePoint" />
            <mxPoint x="370" y="370" as="targetPoint" />
          </mxGeometry>
        </mxCell>
        <mxCell id="embU2D00h88f_JBFr84A-4" value="" style="endArrow=none;html=1;rounded=0;entryX=0;entryY=0;entryDx=0;entryDy=0;exitX=1;exitY=0.3333333333333333;exitDx=0;exitDy=0;exitPerimeter=0;" parent="1" source="NnWNUreuz0Js4np4w738-1" target="jE0IaXRQl2WnNEh09qzP-3" edge="1">
          <mxGeometry width="50" height="50" relative="1" as="geometry">
            <mxPoint x="290" y="450" as="sourcePoint" />
            <mxPoint x="340" y="400" as="targetPoint" />
          </mxGeometry>
        </mxCell>
        <mxCell id="embU2D00h88f_JBFr84A-5" value="" style="endArrow=none;html=1;rounded=0;exitX=0;exitY=0;exitDx=0;exitDy=0;" parent="1" source="jE0IaXRQl2WnNEh09qzP-4" edge="1">
          <mxGeometry width="50" height="50" relative="1" as="geometry">
            <mxPoint x="260" y="530" as="sourcePoint" />
            <mxPoint x="150" y="360" as="targetPoint" />
          </mxGeometry>
        </mxCell>
        <mxCell id="embU2D00h88f_JBFr84A-6" value="Передача идентификартора элемента-контейнера для встраивания приложения на страницу сайта" style="ellipse;whiteSpace=wrap;html=1;" parent="1" vertex="1">
          <mxGeometry x="730" y="200" width="200" height="110" as="geometry" />
        </mxCell>
        <mxCell id="embU2D00h88f_JBFr84A-9" value="Запуск процесса любых расчетов повторно" style="ellipse;whiteSpace=wrap;html=1;" parent="1" vertex="1">
          <mxGeometry x="600" y="490" width="120" height="80" as="geometry" />
        </mxCell>
        <mxCell id="embU2D00h88f_JBFr84A-10" value="" style="endArrow=none;html=1;rounded=0;entryX=1;entryY=0.3333333333333333;entryDx=0;entryDy=0;entryPerimeter=0;exitX=0;exitY=0.5;exitDx=0;exitDy=0;" parent="1" source="embU2D00h88f_JBFr84A-9" target="NnWNUreuz0Js4np4w738-1" edge="1">
          <mxGeometry width="50" height="50" relative="1" as="geometry">
            <mxPoint x="360" y="460" as="sourcePoint" />
            <mxPoint x="410" y="410" as="targetPoint" />
          </mxGeometry>
        </mxCell>
        <mxCell id="embU2D00h88f_JBFr84A-12" value="" style="endArrow=none;html=1;rounded=0;exitX=1;exitY=0.5;exitDx=0;exitDy=0;entryX=0;entryY=0.3333333333333333;entryDx=0;entryDy=0;entryPerimeter=0;" parent="1" source="embU2D00h88f_JBFr84A-6" target="NnWNUreuz0Js4np4w738-3" edge="1">
          <mxGeometry width="50" height="50" relative="1" as="geometry">
            <mxPoint x="950" y="410" as="sourcePoint" />
            <mxPoint x="1000" y="360" as="targetPoint" />
          </mxGeometry>
        </mxCell>
        <mxCell id="oo7PwdRP-riIViRk8AgU-1" value="Передача пути к файлу с описанием доступных вариантов расчетов и формул" style="ellipse;whiteSpace=wrap;html=1;" parent="1" vertex="1">
          <mxGeometry x="710" y="80" width="200" height="100" as="geometry" />
        </mxCell>
        <mxCell id="oo7PwdRP-riIViRk8AgU-2" value="" style="endArrow=none;html=1;rounded=0;entryX=1;entryY=0.5;entryDx=0;entryDy=0;exitX=0;exitY=0.3333333333333333;exitDx=0;exitDy=0;exitPerimeter=0;" parent="1" source="NnWNUreuz0Js4np4w738-3" target="oo7PwdRP-riIViRk8AgU-1" edge="1">
          <mxGeometry width="50" height="50" relative="1" as="geometry">
            <mxPoint x="1010" y="280" as="sourcePoint" />
            <mxPoint x="1060" y="230" as="targetPoint" />
          </mxGeometry>
        </mxCell>
        <mxCell id="qWmBpYlJxiAJWZG_chfn-2" value="" style="endArrow=classic;dashed=1;html=1;rounded=0;exitX=1;exitY=0.5;exitDx=0;exitDy=0;entryX=0;entryY=0.5;entryDx=0;entryDy=0;endFill=1;" edge="1" parent="1" source="jE0IaXRQl2WnNEh09qzP-4" target="jE0IaXRQl2WnNEh09qzP-6">
          <mxGeometry width="50" height="50" relative="1" as="geometry">
            <mxPoint x="560" y="440" as="sourcePoint" />
            <mxPoint x="610" y="390" as="targetPoint" />
          </mxGeometry>
        </mxCell>
        <mxCell id="qWmBpYlJxiAJWZG_chfn-3" value="include" style="edgeLabel;html=1;align=center;verticalAlign=middle;resizable=0;points=[];" vertex="1" connectable="0" parent="qWmBpYlJxiAJWZG_chfn-2">
          <mxGeometry x="-0.3407" y="2" relative="1" as="geometry">
            <mxPoint x="1" as="offset" />
          </mxGeometry>
        </mxCell>
        <mxCell id="qWmBpYlJxiAJWZG_chfn-5" value="" style="endArrow=classic;dashed=1;html=1;rounded=0;exitX=1;exitY=1;exitDx=0;exitDy=0;entryX=0;entryY=0;entryDx=0;entryDy=0;endFill=1;" edge="1" parent="1" source="jE0IaXRQl2WnNEh09qzP-4" target="jE0IaXRQl2WnNEh09qzP-5">
          <mxGeometry width="50" height="50" relative="1" as="geometry">
            <mxPoint x="420" y="590" as="sourcePoint" />
            <mxPoint x="500" y="585" as="targetPoint" />
          </mxGeometry>
        </mxCell>
        <mxCell id="qWmBpYlJxiAJWZG_chfn-6" value="include" style="edgeLabel;html=1;align=center;verticalAlign=middle;resizable=0;points=[];" vertex="1" connectable="0" parent="qWmBpYlJxiAJWZG_chfn-5">
          <mxGeometry x="-0.3407" y="2" relative="1" as="geometry">
            <mxPoint x="1" as="offset" />
          </mxGeometry>
        </mxCell>
        <mxCell id="qWmBpYlJxiAJWZG_chfn-8" value="" style="endArrow=none;html=1;rounded=0;entryX=0;entryY=0.5;entryDx=0;entryDy=0;" edge="1" parent="1" target="qWmBpYlJxiAJWZG_chfn-9">
          <mxGeometry width="50" height="50" relative="1" as="geometry">
            <mxPoint x="150" y="360" as="sourcePoint" />
            <mxPoint x="220" y="270" as="targetPoint" />
          </mxGeometry>
        </mxCell>
        <mxCell id="qWmBpYlJxiAJWZG_chfn-9" value="Выбор варианта использования" style="ellipse;whiteSpace=wrap;html=1;" vertex="1" parent="1">
          <mxGeometry x="280" y="150" width="120" height="80" as="geometry" />
        </mxCell>
      </root>
    </mxGraphModel>
  </diagram>
</mxfile>
